<?xml version="1.0" encoding="UTF-8" standalone="no"?>
<!-- Created with Inkscape (http://www.inkscape.org/) -->

<svg
   xmlns:dc="http://purl.org/dc/elements/1.1/"
   xmlns:cc="http://creativecommons.org/ns#"
   xmlns:rdf="http://www.w3.org/1999/02/22-rdf-syntax-ns#"
   xmlns:svg="http://www.w3.org/2000/svg"
   xmlns="http://www.w3.org/2000/svg"
   xmlns:xlink="http://www.w3.org/1999/xlink"
   xmlns:sodipodi="http://sodipodi.sourceforge.net/DTD/sodipodi-0.dtd"
   xmlns:inkscape="http://www.inkscape.org/namespaces/inkscape"
   version="1.1"
   id="svg815"
   width="128"
   height="128"
   viewBox="0 0 128 128"
   sodipodi:docname="marmot.svg"
   inkscape:version="0.92.4 5da689c313, 2019-01-14">
  <title
     id="title23713">Marmot</title>
  <metadata
     id="metadata821">
    <rdf:RDF>
      <cc:Work
         rdf:about="">
        <dc:format>image/svg+xml</dc:format>
        <dc:type
           rdf:resource="http://purl.org/dc/dcmitype/StillImage" />
        <dc:title>Marmot</dc:title>
        <cc:license
           rdf:resource="http://creativecommons.org/publicdomain/zero/1.0/" />
        <dc:creator>
          <cc:Agent>
            <dc:title>Anthony Vital</dc:title>
          </cc:Agent>
        </dc:creator>
      </cc:Work>
      <cc:License
         rdf:about="http://creativecommons.org/publicdomain/zero/1.0/">
        <cc:permits
           rdf:resource="http://creativecommons.org/ns#Reproduction" />
        <cc:permits
           rdf:resource="http://creativecommons.org/ns#Distribution" />
        <cc:permits
           rdf:resource="http://creativecommons.org/ns#DerivativeWorks" />
      </cc:License>
    </rdf:RDF>
  </metadata>
  <defs
     id="defs819">
    <linearGradient
       inkscape:collect="always"
       id="linearGradient23685">
      <stop
         style="stop-color:#5b534c;stop-opacity:1"
         offset="0"
         id="stop23681" />
      <stop
         style="stop-color:#f4f4f4;stop-opacity:1"
         offset="1"
         id="stop23683" />
    </linearGradient>
    <linearGradient
       id="linearGradient23595"
       inkscape:collect="always">
      <stop
         id="stop23591"
         offset="0"
         style="stop-color:#efe6e0;stop-opacity:1" />
      <stop
         id="stop23593"
         offset="1"
         style="stop-color:#ecd46d;stop-opacity:1" />
    </linearGradient>
    <inkscape:path-effect
       effect="bspline"
       id="path-effect23547"
       is_visible="true"
       weight="33.333333"
       steps="2"
       helper_size="0"
       apply_no_weight="true"
       apply_with_weight="true"
       only_selected="false" />
    <inkscape:path-effect
       effect="bspline"
       id="path-effect917"
       is_visible="true"
       weight="33.333333"
       steps="2"
       helper_size="0"
       apply_no_weight="true"
       apply_with_weight="true"
       only_selected="false" />
    <inkscape:path-effect
       effect="bspline"
       id="path-effect913"
       is_visible="true"
       weight="33.333333"
       steps="2"
       helper_size="0"
       apply_no_weight="true"
       apply_with_weight="true"
       only_selected="false" />
    <inkscape:path-effect
       effect="bspline"
       id="path-effect909"
       is_visible="true"
       weight="33.333333"
       steps="2"
       helper_size="0"
       apply_no_weight="true"
       apply_with_weight="true"
       only_selected="false" />
    <inkscape:path-effect
       effect="bspline"
       id="path-effect889"
       is_visible="true"
       weight="33.333333"
       steps="2"
       helper_size="0"
       apply_no_weight="true"
       apply_with_weight="true"
       only_selected="false" />
    <linearGradient
       inkscape:collect="always"
       id="linearGradient853">
      <stop
         style="stop-color:#562610;stop-opacity:1"
         offset="0"
         id="stop849" />
      <stop
         style="stop-color:#000000;stop-opacity:0"
         offset="1"
         id="stop851" />
    </linearGradient>
    <inkscape:path-effect
       effect="bspline"
       id="path-effect847"
       is_visible="true"
       weight="33.333333"
       steps="2"
       helper_size="0"
       apply_no_weight="true"
       apply_with_weight="true"
       only_selected="false" />
    <inkscape:path-effect
       effect="bspline"
       id="path-effect843"
       is_visible="true"
       weight="33.333333"
       steps="2"
       helper_size="0"
       apply_no_weight="true"
       apply_with_weight="true"
       only_selected="false" />
    <inkscape:path-effect
       effect="bspline"
       id="path-effect839"
       is_visible="true"
       weight="33.333333"
       steps="2"
       helper_size="0"
       apply_no_weight="true"
       apply_with_weight="true"
       only_selected="false" />
    <inkscape:path-effect
       effect="bspline"
       id="path-effect835"
       is_visible="true"
       weight="33.333333"
       steps="2"
       helper_size="0"
       apply_no_weight="true"
       apply_with_weight="true"
       only_selected="false" />
    <inkscape:path-effect
       effect="bspline"
       id="path-effect831"
       is_visible="true"
       weight="33.333333"
       steps="2"
       helper_size="0"
       apply_no_weight="true"
       apply_with_weight="true"
       only_selected="false" />
    <linearGradient
       inkscape:collect="always"
       xlink:href="#linearGradient853"
       id="linearGradient855"
       x1="315.97675"
       y1="107.79985"
       x2="298.14093"
       y2="102.20715"
       gradientUnits="userSpaceOnUse" />
    <linearGradient
       inkscape:collect="always"
       xlink:href="#linearGradient23595"
       id="linearGradient23589"
       x1="187.28923"
       y1="127.90131"
       x2="334.76529"
       y2="243.76617"
       gradientUnits="userSpaceOnUse"
       gradientTransform="matrix(0.69140237,0,0,0.64427725,-109.31068,-39.940033)" />
    <linearGradient
       inkscape:collect="always"
       xlink:href="#linearGradient23685"
       id="linearGradient23691"
       x1="25.514433"
       y1="18.261623"
       x2="79.470543"
       y2="98.161758"
       gradientUnits="userSpaceOnUse" />
  </defs>
  <sodipodi:namedview
     pagecolor="#ffffff"
     bordercolor="#666666"
     borderopacity="1"
     objecttolerance="10"
     gridtolerance="10"
     guidetolerance="10"
     inkscape:pageopacity="0"
     inkscape:pageshadow="2"
     inkscape:window-width="1920"
     inkscape:window-height="1002"
     id="namedview817"
     showgrid="false"
     inkscape:zoom="4.5311403"
     inkscape:cx="50.521449"
     inkscape:cy="70.559549"
     inkscape:window-x="0"
     inkscape:window-y="0"
     inkscape:window-maximized="1"
     inkscape:current-layer="svg815" />
  <circle
     style="fill:#008803;fill-opacity:1;fill-rule:nonzero;stroke:#000000;stroke-width:0.6654982;stroke-linecap:round;stroke-linejoin:bevel;stroke-miterlimit:4;stroke-dasharray:none;stroke-opacity:1"
     id="path918"
     cx="64"
     cy="64"
     r="63.667252" />
  <path
     style="fill:url(#linearGradient23589);fill-opacity:1;fill-rule:evenodd;stroke:#000000;stroke-width:0.66897638;stroke-linecap:butt;stroke-linejoin:miter;stroke-opacity:1;stroke-miterlimit:4;stroke-dasharray:none"
     d="m 99.30243,46.625915 c -1.06601,0.760466 -2.13702,1.511017 -3.2531,2.169404 -1.38583,0.817511 -2.81607,1.545924 -4.19568,2.185756 -1.37961,0.639838 -2.70928,1.191346 -3.89183,1.653479 -1.18257,0.462134 -2.21815,0.835963 -3.35304,1.167753 -1.13489,0.33179 -2.36909,0.621077 -3.94586,0.917341 -3.15353,0.592529 -7.680054,1.20898 -12.231873,2.014623 -2.27591,0.402821 -4.571594,0.856624 -6.742522,1.382934 -2.170927,0.526304 -4.217928,1.125785 -5.998462,1.822094 -1.780527,0.696309 -3.319187,1.494485 -4.673714,2.320403 -1.354533,0.825925 -2.523971,1.67974 -3.566391,2.485254 -1.042421,0.805508 -1.958577,1.563481 -2.889848,2.463852 -0.931271,0.900377 -1.877918,1.942438 -2.984376,3.317023 -1.106451,1.374591 -2.371683,3.080946 -3.535334,4.959176 -0.581829,0.939114 -1.138325,1.921954 -1.636681,2.926934 -0.498349,1.00497 -0.938578,2.03202 -1.288276,3.06283 -0.34969,1.0308 -0.608849,2.06465 -0.807537,3.10184 -0.198688,1.03719 -0.33755,2.07773 -0.44563,3.12198 -0.21616,2.08849 -0.311877,4.19238 -0.528003,6.31316 -0.216125,2.12078 -0.552541,4.25959 -1.035755,6.223819 -0.241604,0.98211 -0.519389,1.92045 -0.83724,2.79103 -0.317859,0.87058 -0.675846,1.67379 -1.076265,2.38458 -0.400425,0.71079 -0.843746,1.32982 -1.319341,1.87998 -0.475595,0.55016 -0.983125,1.03054 -1.512442,1.46598 -1.05488,0.86781 -2.19606,1.55356 -3.336826,2.23861 1.706361,0.20422 3.002906,0.43645 5.321911,0.59898 16.742267,1.17336 50.547415,1.2312 67.576475,0.60653 17.02906,-0.62467 17.2442,-1.93155 17.20809,-3.00369 -0.0361,-1.07215 -0.32336,-1.91045 -1.88786,-4.3904 -1.56449,-2.47995 -4.4026,-6.598189 -5.53661,-9.013589 -1.13402,-2.4154 -0.55954,-3.11899 -1.20726,-4.895 -0.64772,-1.776 -2.51714,-4.62368 -2.46312,-5.91426 0.054,-1.29058 2.0332,-1.0224 2.12282,-1.52513 0.0896,-0.50272 -1.70926,-1.77582 -1.43952,-2.07754 0.26974,-0.30172 2.60734,0.36919 2.57116,-0.28439 -0.0362,-0.65357 -2.44417,-2.63063 -2.83989,-3.2843 -0.39572,-0.65368 1.22191,0.0157 1.29368,-0.26929 0.0718,-0.28493 -1.40139,-1.52337 -1.63533,-2.110258 -0.23394,-0.586885 0.7729,-0.519571 0.88046,-0.737395 0.10756,-0.217823 -0.68399,-0.720779 -1.67314,-1.575457 -0.98916,-0.854686 -2.19227,-2.077898 -3.0654,-3.661815 -0.87313,-1.583916 -1.44731,-3.5611 -1.51919,-7.415476 -0.0719,-3.854382 0.35478,-9.537442 0.73461,-12.510556 0.18853,-1.475762 0.36647,-2.25316 0.64414,-2.906799 z"
     id="path23579"
     inkscape:connector-curvature="0" />
  <path
     style="fill:url(#linearGradient23691);fill-opacity:1;fill-rule:evenodd;stroke:#000000;stroke-width:0.66742402px;stroke-linecap:butt;stroke-linejoin:miter;stroke-opacity:1"
     d="m 67.496575,15.441382 c -3.200861,0.150561 -4.27967,0.788589 -6.149706,1.760443 -1.870029,0.971847 -4.533657,2.279105 -6.54671,3.1333 -2.013059,0.85419 -3.379706,1.256831 -5.32191,1.47479 -1.942205,0.217959 -4.447225,0.250643 -5.224679,1.749109 -0.777454,1.498473 0.187965,4.434 0.332198,6.310651 0.144227,1.876644 -0.538941,2.681688 -1.114077,3.435305 -0.575136,0.753618 -1.043575,1.457755 -1.852744,2.814938 -0.809162,1.357183 -1.960078,3.368616 -2.787216,5.446153 -0.827139,2.077543 -1.330908,4.22238 -1.924311,7.221697 -0.59341,2.999317 -1.276931,6.853751 -3.470515,10.205249 -2.193592,3.351498 -5.899287,6.202141 -7.876857,8.413352 -1.977577,2.211211 -2.230215,3.787461 -2.787216,4.825791 -0.557,1.03833 -1.419926,1.54106 -1.779822,2.412265 -0.359895,0.871206 -0.215558,2.113076 -0.592822,2.967196 -0.377264,0.85412 -1.277718,1.32332 -1.709603,2.8313 -0.431884,1.50797 -0.395026,4.05435 -0.772428,5.9646 -0.377395,1.91024 -1.168988,3.1839 -2.26596,5.07745 -1.096972,1.89355 -2.499918,4.40638 -1.778467,5.05859 0.721444,0.65221 3.564967,-0.55597 3.852674,0.68454 0.287706,1.24052 -1.982673,4.930669 -3.286858,7.917569 -1.123549,2.57317 -0.836002,4.5799 9.776858,5.85008 1.140766,-0.68505 2.281946,-1.3708 3.336826,-2.23861 0.529317,-0.43544 1.036847,-0.91582 1.512442,-1.46598 0.475595,-0.55016 0.918916,-1.16919 1.319341,-1.87998 0.400419,-0.71079 0.758406,-1.514 1.076265,-2.38458 0.317851,-0.87058 0.595636,-1.80892 0.83724,-2.79103 0.483214,-1.964229 0.81963,-4.103039 1.035755,-6.223819 0.216126,-2.12078 0.311843,-4.22467 0.528003,-6.31316 0.10808,-1.04425 0.246942,-2.08479 0.44563,-3.12198 0.198688,-1.03719 0.457847,-2.07104 0.807537,-3.10184 0.349699,-1.03081 0.789927,-2.05786 1.288276,-3.06283 0.498356,-1.00498 1.054852,-1.98782 1.636681,-2.926934 1.163651,-1.87823 2.428883,-3.584585 3.535334,-4.959176 1.106458,-1.374585 2.053105,-2.416646 2.984376,-3.317023 0.931271,-0.900371 1.847427,-1.658344 2.889848,-2.463852 1.04242,-0.805514 2.211858,-1.659329 3.566391,-2.485254 1.354527,-0.825918 2.893187,-1.624094 4.673714,-2.320403 1.780534,-0.696309 3.827535,-1.29579 5.998462,-1.822094 2.170928,-0.52631 4.466612,-0.980113 6.742522,-1.382934 4.551819,-0.805643 9.078343,-1.422094 12.231873,-2.014623 1.57677,-0.296264 2.81097,-0.585551 3.94586,-0.917341 1.13489,-0.33179 2.17047,-0.705619 3.35304,-1.167753 1.18255,-0.462133 2.51222,-1.013641 3.89183,-1.653479 1.37961,-0.639832 2.80985,-1.368245 4.19568,-2.185756 1.11608,-0.658387 2.18709,-1.408938 3.2531,-2.169404 0.28173,-0.663206 0.6671,-1.199148 1.28288,-2.178211 1.22267,-1.944016 3.32887,-5.636627 4.43334,-8.766951 1.10448,-3.130324 1.17655,-5.639668 1.37471,-7.099633 0.19815,-1.45997 0.5216,-1.861793 0.52125,-2.565789 -3.6e-4,-0.703995 -0.32366,-1.708488 -0.97093,-2.579621 -0.64728,-0.871134 -1.61892,-1.609353 -2.48204,-2.195832 -0.86311,-0.586473 -1.61826,-1.022127 -2.96681,-1.591816 -1.34855,-0.569689 -3.29243,-1.273363 -4.67642,-1.708843 -1.38399,-0.435479 -2.21138,-0.603861 -2.98437,-0.771373 -0.773,-0.167506 -1.49265,-0.334741 -3.12887,-0.385053 -1.63622,-0.05032 -4.19489,0.01688 -5.6487,0.05032 -1.45382,0.03344 -1.81351,0.03389 -2.08366,-0.117026 -0.27015,-0.150929 -0.45081,-0.45312 -3.20179,-0.771374 -2.750982,-0.318254 -8.073591,-0.653896 -11.274445,-0.503342 z"
     id="path829"
     inkscape:connector-curvature="0" />
  <path
     style="fill:#000000;fill-opacity:1;fill-rule:evenodd;stroke:#000000;stroke-width:1px;stroke-linecap:butt;stroke-linejoin:miter;stroke-opacity:1"
     d="m 258.37525,96.63677 c 1.06587,0.636851 1.37798,1.625195 2.61425,2.093654 1.23627,0.468458 3.39458,0.416451 5.09827,0.208217 1.70368,-0.208235 2.95213,-0.572365 3.87545,-0.91062 0.92333,-0.338256 1.52154,-0.650367 1.45778,-1.16837 -0.0637,-0.518004 -0.79552,-1.249775 -1.56306,-2.082358 -0.76753,-0.832584 -1.57357,-1.768632 -3.25069,-2.379759 -1.67711,-0.611127 -4.22601,-0.897228 -5.9948,-0.45545 -1.76878,0.441777 -2.75677,1.611769 -3.7845,2.314535 -1.02773,0.702767 -2.09312,0.936633 -1.71516,1.197073 0.37795,0.260441 2.19659,0.546227 3.26246,1.183078 z"
     id="path833"
     inkscape:connector-curvature="0"
     inkscape:path-effect="#path-effect835"
     inkscape:original-d="m 259.12921,96.285892 c 0.31311,0.987352 0.62522,1.975695 0.93633,2.965044 2.16021,-0.05303 4.31852,-0.105037 6.47628,-0.156055 1.24944,-0.365128 2.49789,-0.729256 3.74533,-1.092385 0.5992,-0.31311 1.19741,-0.625219 1.79462,-0.936329 -0.72352,-0.72552 -1.45529,-1.457293 -2.18477,-2.184769 -0.80552,-0.937612 -1.61156,-1.873661 -2.41885,-2.808989 -2.54789,-0.2871 -5.09679,-0.573201 -7.64669,-0.858302 -0.9877,1.169831 -1.97569,2.339824 -2.96504,3.511236 -1.06636,0.233297 -2.13175,0.467164 -3.19913,0.702247 1.82363,0.285414 3.64227,0.5712 5.46192,0.858302 z"
     sodipodi:nodetypes="ccccccccccc"
     transform="matrix(0.69140237,0,0,0.64427725,-109.31068,-39.940033)" />
  <path
     style="fill:#fffbfa;fill-opacity:1;fill-rule:evenodd;stroke:#000000;stroke-width:1px;stroke-linecap:butt;stroke-linejoin:miter;stroke-opacity:1"
     d="m 262.64159,93.437675 c -0.62419,0.116964 -1.24724,0.272727 -1.46942,0.572283 -0.22219,0.299556 -0.0405,0.740892 0.3766,1.157773 0.41705,0.416881 1.06596,0.806227 1.61251,0.936039 0.54654,0.129811 0.98889,-2.92e-4 1.72863,-0.03918 0.73974,-0.03889 1.78291,0.01327 1.76993,-0.454448 -0.013,-0.467722 -1.08032,-1.456971 -1.92509,-1.912216 -0.84477,-0.455244 -1.46897,-0.377219 -2.09316,-0.260254 z"
     id="path837"
     inkscape:connector-curvature="0"
     inkscape:path-effect="#path-effect839"
     inkscape:original-d="m 262.64045,93.398876 c -0.62323,0.155056 -1.24628,0.31082 -1.87266,0.468165 0.1834,0.441977 0.36513,0.883311 0.54619,1.326466 0.65255,0.389927 1.30146,0.779275 1.95069,1.170412 0.44296,-0.130986 0.88531,-0.261091 1.32647,-0.390137 1.03856,0.05088 2.08173,0.103037 3.1211,0.156055 -1.06441,-0.988448 -2.13176,-1.977696 -3.19913,-2.965044 -0.62324,0.07703 -1.24744,0.155055 -1.87266,0.234083 z"
     sodipodi:nodetypes="cccccccc"
     transform="matrix(0.69140237,0,0,0.64427725,-109.31068,-39.940033)" />
  <path
     style="fill:#858382;fill-opacity:1;fill-rule:evenodd;stroke:#000000;stroke-width:1px;stroke-linecap:butt;stroke-linejoin:miter;stroke-opacity:1"
     d="m 234.30563,110.17872 c 1.17713,-0.11067 1.50817,-0.29458 2.1868,-0.64306 0.67863,-0.34847 1.71224,-0.86528 2.39202,-2.13336 0.67977,-1.26808 1.0112,-3.29348 0.72258,-4.99459 -0.28862,-1.70111 -1.2198,-3.116507 -2.48816,-3.925524 -1.26835,-0.809018 -2.88639,-1.02966 -4.8365,-0.790715 -1.95011,0.238944 -4.22968,0.937523 -5.67154,1.701027 -1.44186,0.763502 -2.01447,1.550842 -2.25465,2.620532 -0.24018,1.06968 -0.13022,2.38928 0.21942,3.58589 0.34964,1.19661 0.93772,2.26251 1.73606,3.03868 0.79835,0.77618 1.77704,1.24741 3.28499,1.468 1.50796,0.22059 3.53186,0.18379 4.70898,0.0731 z"
     id="path841"
     inkscape:connector-curvature="0"
     inkscape:path-effect="#path-effect843"
     inkscape:original-d="m 235.15052,110.25263 c 0.33205,-0.18491 0.66309,-0.36883 0.99313,-0.55174 1.02721,-0.5141 2.06082,-1.03091 3.08973,-1.54486 0.33166,-2.02168 0.66309,-4.04708 0.99313,-6.06912 -0.88129,-1.39795 -1.83813,-2.796466 -2.75869,-4.193201 -1.61715,-0.221657 -3.23519,-0.442299 -4.85529,-0.662085 -2.28046,0.698157 -4.56003,1.396735 -6.84154,2.096602 -0.60184,0.827904 -1.17445,1.615244 -1.76556,2.427654 0.11164,1.32674 0.22161,2.64634 0.33104,3.9725 0.58996,1.06649 1.17804,2.13239 1.76556,3.20008 0.99418,0.51398 1.98725,0.95534 2.97938,1.43452 2.02318,-0.0378 4.04708,-0.0746 6.06911,-0.11035 z"
     sodipodi:nodetypes="cccccccccccc"
     transform="matrix(0.69140237,0,0,0.64427725,-109.31068,-39.940033)" />
  <path
     style="fill:#858382;fill-opacity:1;fill-rule:evenodd;stroke:none;stroke-width:1px;stroke-linecap:butt;stroke-linejoin:miter;stroke-opacity:1"
     d="m 300.55712,99.173733 c -0.0295,0.397243 -0.0886,1.194567 -0.0329,1.593037 0.0557,0.39847 0.22537,0.40014 0.70517,0.62774 0.4798,0.22761 1.26974,0.68016 1.87607,1.01743 0.60633,0.33726 1.02654,0.55783 1.42288,0.72697 0.39633,0.16913 0.76854,0.28705 1.48337,0.44638 0.71483,0.15933 1.75849,0.35714 2.27513,0.1877 0.51664,-0.16944 0.50436,-0.70318 0.4867,-1.16809 -0.0177,-0.46491 -0.0402,-0.85034 -0.0262,-1.45834 0.0141,-0.60799 0.0648,-1.434358 -0.46134,-2.269944 -0.52609,-0.835585 -1.63008,-1.681984 -2.99081,-2.233729 -1.36072,-0.551745 -2.97778,-0.809005 -3.80637,-0.404691 -0.82858,0.404314 -0.86534,1.470248 -0.88375,2.00411 -0.0184,0.533863 -0.0185,0.534183 -0.048,0.931427 z"
     id="path887"
     inkscape:connector-curvature="0"
     inkscape:path-effect="#path-effect889"
     inkscape:original-d="m 300.58659,98.776489 c -0.0576,0.794586 -0.11674,1.591911 -0.17706,2.387071 0.17033,3e-4 0.34003,0.002 0.50792,0.005 0.79269,0.45183 1.58263,0.90438 2.37324,1.35962 0.42198,0.21927 0.84219,0.43984 1.26006,0.66142 0.37444,0.11669 0.74665,0.2346 1.12085,0.35508 1.05522,0.19826 2.09888,0.39607 3.14419,0.59594 -0.0109,-0.5371 -0.0232,-1.07084 -0.037,-1.6089 -0.0214,-0.39182 -0.044,-0.77725 -0.0682,-1.16403 0.0522,-0.82904 0.10286,-1.655405 0.15213,-2.481174 -1.10195,-0.846601 -2.20595,-1.692995 -3.31042,-2.537992 -1.61765,-0.258513 -3.23471,-0.515771 -4.85529,-0.772433 -0.0358,1.066453 -0.0726,2.132385 -0.11035,3.200078 z"
     sodipodi:nodetypes="cccccccccccccc"
     transform="matrix(0.69140237,0,0,0.67996602,-109.31068,-43.36762)" />
  <path
     style="fill:url(#linearGradient855);fill-opacity:1;fill-rule:evenodd;stroke:none;stroke-width:1px;stroke-linecap:butt;stroke-linejoin:miter;stroke-opacity:1"
     d="m 299.1522,102.91361 c -3.2e-4,0.644 0.22037,1.34285 0.62513,1.93172 0.40476,0.58888 0.99329,1.06705 1.87633,1.4901 0.88304,0.42305 2.06007,0.79088 3.01669,0.86417 0.95663,0.0733 1.69228,-0.14741 2.31759,-0.33131 0.6253,-0.18391 1.14025,-0.33103 1.39713,-0.40443 0.25689,-0.0734 0.25689,-0.0734 0.29379,-0.25788 0.0369,-0.18449 0.11052,-0.55258 0.0967,-0.87856 -0.0138,-0.32598 -0.11413,-0.61008 -0.31577,-0.79337 -0.20163,-0.18329 -0.5057,-0.26674 -0.89691,-0.32698 -0.39122,-0.0602 -0.86863,-0.097 -1.40306,-0.18905 -0.53442,-0.0921 -1.12164,-0.23888 -2.00498,-0.68044 -0.88333,-0.44156 -2.04416,-1.16708 -2.864,-1.59574 -0.81984,-0.42866 -1.2545,-0.53732 -1.58628,-0.29849 -0.33178,0.23884 -0.55206,0.82627 -0.55239,1.47026 z"
     id="path845"
     inkscape:connector-curvature="0"
     inkscape:path-effect="#path-effect847"
     inkscape:original-d="m 298.93138,102.85935 c 0.22169,0.69788 0.44239,1.39673 0.66208,2.0966 0.58952,0.47717 1.17804,0.95534 1.76557,1.43451 1.17804,0.36683 2.35507,0.73465 3.53111,1.10348 0.73665,-0.2217 1.4723,-0.44239 2.20695,-0.66209 0.51596,-0.14813 1.03091,-0.29525 1.54487,-0.44138 0.001,-10e-4 0.001,-10e-4 0,0 0.0746,-0.36882 0.14851,-0.73685 0.2207,-1.10348 -0.0991,-0.28617 -0.19943,-0.57028 -0.30129,-0.85303 -0.30269,-0.085 -0.60675,-0.16846 -0.91255,-0.25043 -0.477,-0.0384 -0.95446,-0.0745 -1.4345,-0.11036 -0.5886,-0.1484 -1.17582,-0.2952 -1.76556,-0.44139 -1.17649,-0.73693 -2.33732,-1.46244 -3.53113,-2.20695 -0.4463,-0.11283 -0.88097,-0.22149 -1.32417,-0.33104 -0.2201,0.5886 -0.44039,1.17603 -0.66208,1.76556 z"
     sodipodi:nodetypes="ccccccccccccccc"
     transform="matrix(0.69140237,0,0,0.64427725,-109.31068,-39.940033)" />
  <path
     style="fill:#000000;fill-opacity:1;fill-rule:evenodd;stroke:#030303;stroke-width:1px;stroke-linecap:butt;stroke-linejoin:miter;stroke-opacity:1"
     d="m 303.033,124.37657 c 1.63701,-0.84666 3.07153,-3.89961 3.65971,-6.29029 0.58817,-2.39067 0.33069,-4.11945 -0.11073,-5.55373 -0.44142,-1.43427 -1.06672,-2.57453 -1.72816,-3.10776 -0.66145,-0.53323 -1.35913,-0.45979 -1.9589,0.0975 -0.59978,0.55727 -1.09666,1.59484 -1.52009,2.68078 -0.42344,1.08595 -0.77123,2.21566 -1.11057,3.62593 -0.33935,1.41026 -0.67057,3.10316 -2.01348,4.00492 -1.34292,0.90175 -3.69548,1.01203 -5.62684,1.19593 -1.93137,0.1839 -3.43878,0.44126 -4.83719,1.52658 -1.3984,1.08533 -2.6841,2.99551 -4.80006,4.72552 -2.11597,1.73001 -5.056,3.27353 -5.53437,3.93607 -0.47837,0.66254 1.50727,0.44191 3.73225,-0.58808 2.22499,-1.03 4.69014,-2.86967 6.78679,-4.1937 2.09664,-1.32404 3.82542,-2.13325 5.38819,-2.70312 1.56277,-0.56988 2.96144,-0.90114 4.5786,-0.38656 1.61716,0.51459 3.45783,1.87668 5.09485,1.03002 z"
     id="path907"
     inkscape:connector-curvature="0"
     inkscape:path-effect="#path-effect909"
     inkscape:original-d="m 303.23493,126.58406 c 1.43552,-3.05395 2.87003,-6.1069 4.30355,-9.15884 -0.25647,-1.72978 -0.51395,-3.45856 -0.77243,-5.18634 -0.6243,-1.14125 -1.2496,-2.28151 -1.8759,-3.42077 -0.69787,0.0726 -1.39555,0.14601 -2.09661,0.2207 -0.49798,1.04094 -0.99486,2.07851 -1.49437,3.1205 -0.34715,1.12989 -0.69493,2.25961 -1.04362,3.39 -0.32986,1.69009 -0.66109,3.38299 -0.99313,5.07598 -2.3546,0.10942 -4.70716,0.2197 -7.06224,0.33105 -1.50775,0.25659 -3.01516,0.51395 -4.52425,0.77243 -1.28736,1.91313 -2.57305,3.82331 -3.86216,5.73807 -2.94325,1.54473 -5.88328,3.08825 -8.82779,4.6346 1.98787,-0.22177 3.97351,-0.44239 5.95876,-0.66209 2.4647,-1.83958 4.92985,-3.67925 7.39328,-5.51738 1.72978,-0.81021 3.45855,-1.61943 5.18633,-2.42764 1.3978,-0.33182 2.79647,-0.66309 4.19321,-0.99313 1.83858,1.35881 3.67925,2.72091 5.51737,4.08286 z"
     sodipodi:nodetypes="ccccccccccccccccc"
     transform="matrix(0.69140237,0,0,0.64427725,-109.31068,-39.940033)" />
  <path
     style="fill:#ffffff;fill-opacity:1;fill-rule:evenodd;stroke:#ffffff;stroke-width:1px;stroke-linecap:butt;stroke-linejoin:miter;stroke-opacity:1"
     d="m 304.43066,113.12125 c 0.2756,1.54426 0.20203,4.41328 -0.0551,6.14212 -0.25715,1.72884 -0.69838,2.31715 -1.49024,2.57515 -0.79187,0.25799 -1.92995,0.18457 -2.57417,0.0741 -0.64422,-0.11044 -0.79134,-0.25756 -0.60531,-0.75981 0.18604,-0.50225 0.70483,-1.35924 1.14632,-2.68442 0.44149,-1.32519 0.80499,-3.11408 1.13442,-4.41518 0.32942,-1.30109 0.62418,-2.11166 1.08298,-2.40455 0.45881,-0.29289 1.08553,-0.0717 1.36112,1.47256 z"
     id="path911"
     inkscape:connector-curvature="0"
     inkscape:path-effect="#path-effect913"
     inkscape:original-d="m 304.7798,111.79749 c -0.0726,2.86804 -0.14613,5.73707 -0.2207,8.60711 -0.44055,0.58773 -0.88178,1.17604 -1.32417,1.76556 -1.14143,-0.0747 -2.27951,-0.14813 -3.42077,-0.2207 -0.14625,-0.14825 -0.29337,-0.29537 -0.44139,-0.44138 0.51938,-0.85732 1.03816,-1.71431 1.55635,-2.57095 0.36528,-1.79374 0.72877,-3.58264 1.09199,-5.37407 0.29544,-0.8107 0.59019,-1.62128 0.88278,-2.42765 0.62488,0.21919 1.2516,0.44039 1.87591,0.66208 z"
     sodipodi:nodetypes="ccccccccc"
     transform="matrix(0.69140237,0,0,0.64427725,-109.31068,-39.940033)" />
  <path
     style="fill:#f6f3f3;fill-opacity:1;fill-rule:evenodd;stroke:#b2b2b2;stroke-width:1px;stroke-linecap:butt;stroke-linejoin:miter;stroke-opacity:1"
     d="m 302.88551,112.73444 c 0.0184,0.31266 0.0184,3.21848 -0.12847,4.91051 -0.14685,1.69204 -0.44095,2.16996 -0.45925,1.85595 -0.0183,-0.314 0.23855,-1.41477 0.38553,-3.10548 0.14698,-1.69071 0.1838,-3.97364 0.20219,-3.66098 z"
     id="path915"
     inkscape:connector-curvature="0"
     inkscape:path-effect="#path-effect917"
     inkscape:original-d="m 302.90389,110.14228 c 0.001,2.90482 0.001,5.81064 0,8.71745 -0.29342,0.47743 -0.58752,0.95535 -0.88278,1.43452 0.25911,-1.10718 0.51595,-2.20795 0.77243,-3.31042 0.0378,-2.2791 0.0746,-4.56203 0.11035,-6.84155 z"
     sodipodi:nodetypes="ccccc"
     transform="matrix(0.69140237,0,0,0.64427725,-109.31068,-39.940033)" />
</svg>
